:SAMPLES-PER-SECOND 30
:FULLY-SPECIFIED
:DEGREES
33
root  54.8098 34.6759 -0.863726 -46.153 -87.2998 76.5363
RightUpLeg  -76.5771 -20.8685 24.0426
RightLeg  48.4594 -1.91086 -2.66509
RightFoot  -8.12236 0.341021 -13.9836
RightToes  2.32829e-010 0 -3.6325e-017
Spine  71.0892 -5.93692 10.8046
Spine1  -0.118277 2.35598 -4.39882
HEad  -48.6007 -9.5904 -0.114725
LeftShoulder1  10.8049 -31.6383 -24.1669
LeftArm  -59.0712 -63.6492 13.9987
LeftForeArm  4.08579 0.0797713 -1.05213
LeftHand  -0.244104 0.0205437 5.32207
RightShoulder  4.28805 17.3236 13.6286
RightArm  -54.2369 54.9354 -18.2858
RightForeArm  -18.1912 1.07318 5.06056
RightHand  -1.57802 8.00833 -13.9537
LeftUpLeg  -78.3944 25.2096 -29.4075
LeftLeg  44.0155 0.993661 1.43765
LeftFoot  -5.78892 -0.305112 7.00867
LeftToes  1.42787e-010 7.94111e-011 2.6399e-011
34
root  54.4774 34.4425 -0.911438 -39.4882 -87.4968 71.5072
RightUpLeg  -78.5962 -20.1671 24.8833
RightLeg  50.1294 -2.12364 -3.09726
RightFoot  -9.1875 0.202297 -13.9565
RightToes  2.32829e-010 0 -3.6325e-017
Spine  72.6416 -5.72002 10.7082
Spine1  -1.6951 2.5388 -4.20703
HEad  -49.0353 -9.45422 -0.289199
LeftShoulder1  10.9841 -32.0902 -24.2682
LeftArm  -62.264 -63.1591 17.6515
LeftForeArm  1.02778 -0.785552 -0.860999
LeftHand  -0.244104 0.0205437 5.32207
RightShoulder  4.34335 17.4919 13.7353
RightArm  -56.4137 54.6292 -19.9637
RightForeArm  -21.6617 2.20416 5.01213
RightHand  -1.82171 9.78061 -14.2317
LeftUpLeg  -81.0913 25.1575 -30.4812
LeftLeg  45.9994 0.503251 0.979832
LeftFoot  -6.3656 -0.302981 7.84233
LeftToes  1.42787e-010 7.94111e-011 2.6399e-011
35
root  54.1659 34.2618 -0.961254 -28.8311 -87.7528 62.0433
RightUpLeg  -79.9132 -19.5335 25.602
RightLeg  51.4474 -2.47708 -3.71912
RightFoot  -10.0991 0.0841482 -13.9439
RightToes  2.32829e-010 0 -3.6325e-017
Spine  74.0651 -5.4153 10.6427
Spine1  -2.93014 2.68851 -3.69397
HEad  -49.4058 -9.24633 -0.55432
LeftShoulder1  11.0322 -32.2675 -24.2422
LeftArm  -64.5119 -62.4241 19.7122
LeftForeArm  -1.89266 -2.2562 -0.602464
LeftHand  -0.244104 0.0205437 5.32207
RightShoulder  4.26535 17.4921 13.3245
RightArm  -57.5353 54.2493 -19.6651
RightForeArm  -25.0742 4.72991 5.13174
RightHand  -2.01023 11.3696 -14.2303
LeftUpLeg  -83.2214 25.2897 -31.0951
LeftLeg  47.7503 0.0154868 0.451032
LeftFoot  -7.05242 -0.260384 8.06951
LeftToes  1.42787e-010 7.94111e-011 2.6399e-011
36
root  53.8776 34.1444 -1.00347 -21.6736 -87.6815 55.9901
RightUpLeg  -81.0398 -19.066 26.0045
RightLeg  52.3695 -2.89466 -4.42232
RightFoot  -10.9401 -0.0241503 -14.0016
RightToes  2.32829e-010 0 -3.6325e-017
Spine  75.1276 -5.24936 10.4145
Spine1  -3.51103 2.7218 -3.4493
HEad  -49.9442 -8.98876 -0.546991
LeftShoulder1  11.1164 -32.1663 -24.5828
LeftArm  -66.3182 -61.6509 21.043
LeftForeArm  -3.14057 -4.77429 -0.451636
LeftHand  -0.244104 0.0205437 5.32207
RightShoulder  4.10832 16.9715 13.0571
RightArm  -59.3864 53.972 -17.7735
RightForeArm  -26.8798 8.75188 4.9836
RightHand  -2.01878 12.424 -13.4804
LeftUpLeg  -84.8198 25.3848 -32.0705
LeftLeg  48.7182 -0.642037 -0.342805
LeftFoot  -7.6962 -0.205327 7.89757
LeftToes  1.42787e-010 7.94111e-011 2.6399e-011
37
root  53.61 34.0833 -1.02153 -19.0517 -87.3386 54.445
RightUpLeg  -82.0673 -18.8346 26.1315
RightLeg  52.9648 -3.25739 -5.03093
RightFoot  -11.7687 -0.131121 -13.9128
RightToes  2.32829e-010 0 -3.6325e-017
Spine  75.6928 -5.39367 10.1369
Spine1  -3.29669 2.53794 -3.58973
HEad  -50.7874 -8.5914 -0.251467
LeftShoulder1  11.1565 -31.6807 -25.1651
LeftArm  -67.9527 -61.0341 22.2515
LeftForeArm  -3.30198 -8.39861 -0.652011
LeftHand  -0.244104 0.0205437 5.32207
RightShoulder  4.01499 16.0133 13.6271
RightArm  -62.3719 53.904 -15.9634
RightForeArm  -25.9503 13.9633 4.83504
RightHand  -1.71213 12.5442 -11.4228
LeftUpLeg  -85.9205 25.2772 -33.2046
LeftLeg  49.2308 -1.25413 -1.11474
LeftFoot  -8.26792 -0.155928 7.65593
LeftToes  1.42787e-010 7.94111e-011 2.6399e-011
38
root  53.3669 34.0729 -1.01311 -14.0513 -87.0457 50.3193
RightUpLeg  -82.7111 -18.7624 26.2893
RightLeg  53.2346 -3.49628 -5.42116
RightFoot  -12.4235 -0.212804 -13.6155
RightToes  2.32829e-010 0 -3.6325e-017
Spine  75.9526 -5.70451 9.99713
Spine1  -2.55275 2.20262 -3.67728
HEad  -51.7687 -8.0078 -0.112958
LeftShoulder1  11.0843 -30.7976 -25.8238
LeftArm  -70.1295 -60.6214 23.6254
LeftForeArm  -3.59607 -12.4968 -1.24425
LeftHand  -0.244104 0.0205437 5.32207
RightShoulder  4.00552 15.1568 14.6103
RightArm  -65.4489 53.9226 -15.5721
RightForeArm  -22.8104 19.2429 5.21398
RightHand  -1.19149 11.7523 -8.44123
LeftUpLeg  -86.6098 25.117 -33.8229
LeftLeg  49.6225 -1.69857 -1.69396
LeftFoot  -8.75457 -0.113119 7.33829
LeftToes  1.42787e-010 7.94111e-011 2.6399e-011
39
root  53.1584 34.1111 -0.983206 -6.21603 -86.9885 43.2036
RightUpLeg  -82.9755 -18.6533 26.6438
RightLeg  53.1165 -3.60709 -5.55562
RightFoot  -12.7185 -0.24642 -13.3107
RightToes  2.32829e-010 0 -3.6325e-017
Spine  76.1385 -5.88463 9.92657
Spine1  -1.88456 1.91996 -3.493
HEad  -52.5248 -7.36159 -0.390213
LeftShoulder1  11.0175 -29.762 -26.6905
LeftArm  -73.5633 -60.4132 25.023
LeftForeArm  -3.43169 -16.0633 -2.16088
LeftHand  -0.244104 0.0205437 5.32207
RightShoulder  3.96767 14.7069 14.9707
RightArm  -67.3401 53.8281 -16.1322
RightForeArm  -19.7522 23.1997 5.8845
RightHand  -0.741149 10.6706 -5.7579
LeftUpLeg  -87.1254 25.0404 -34.0144
LeftLeg  49.7131 -2.07548 -2.17685
LeftFoot  -8.94113 -0.0952796 7.11314
LeftToes  1.42787e-010 7.94111e-011 2.6399e-011
40
root  52.9853 34.1844 -0.933354 0.388596 -87.069 37.3551
RightUpLeg  -83.1748 -18.4691 27.0776
RightLeg  52.6783 -3.60405 -5.46384
RightFoot  -12.7151 -0.2443 -13.1771
RightToes  2.32829e-010 0 -3.6325e-017
Spine  76.0399 -5.77607 9.844
Spine1  -1.1753 1.89568 -3.18776
HEad  -53.1964 -6.98862 -0.734704
LeftShoulder1  10.8679 -29.0548 -26.9763
LeftArm  -77.7261 -60.4331 25.7518
LeftForeArm  -2.07025 -18.5934 -3.01003
LeftHand  -0.244104 0.0205437 5.32207
RightShoulder  3.7392 14.2478 14.1584
RightArm  -68.4273 53.525 -16.3771
RightForeArm  -18.4444 25.5373 6.36593
RightHand  -0.477653 9.77219 -4.05438
LeftUpLeg  -87.6305 24.9842 -34.323
LeftLeg  49.419 -2.39556 -2.55274
LeftFoot  -8.83231 -0.100492 7.01251
LeftToes  1.42787e-010 7.94111e-011 2.6399e-011
41
root  52.8353 34.2792 -0.867323 4.04195 -87.134 34.4445
RightUpLeg  -83.3871 -18.4049 27.4913
RightLeg  52.0764 -3.49614 -5.19886
RightFoot  -12.6063 -0.2309 -13.17
RightToes  2.32829e-010 0 -3.6325e-017
Spine  75.5293 -5.51886 9.81385
Spine1  -0.0657642 2.09676 -2.95995
HEad  -54.0803 -7.01793 -0.732976
LeftShoulder1  10.514 -28.8563 -26.0762
LeftArm  -81.7173 -60.5395 25.528
LeftForeArm  0.262265 -20.4156 -3.62824
LeftHand  -0.244104 0.0205437 5.32207
RightShoulder  3.40667 13.5505 12.9723
RightArm  -69.8404 53.0525 -16.2024
RightForeArm  -18.3199 27.0671 6.72756
RightHand  -0.30271 9.01207 -2.82668
LeftUpLeg  -88.0354 24.9476 -34.8439
LeftLeg  49.0099 -2.61378 -2.78149
LeftFoot  -8.78807 -0.0943291 6.59478
LeftToes  1.42787e-010 7.94111e-011 2.6399e-011
42
root  52.7002 34.3943 -0.791635 7.83696 -87.1671 31.1418
RightUpLeg  -83.3632 -18.5705 27.942
RightLeg  51.3798 -3.30956 -4.82221
RightFoot  -12.4647 -0.21312 -13.1212
RightToes  2.32829e-010 0 -3.6325e-017
Spine  76.1074 -5.8509 9.50755
Spine1  -1.51734 1.63898 -3.55636
HEad  -53.5366 -6.10375 -0.440442
LeftShoulder1  10.7526 -27.9765 -27.807
LeftArm  -80.4586 -60.3412 25.5353
LeftForeArm  0.440658 -22.0681 -4.50648
LeftHand  -0.244104 0.0205437 5.32207
RightShoulder  3.9351 14.7913 14.673
RightArm  -68.6503 52.3221 -16.1765
RightForeArm  -18.6394 28.6663 7.13771
RightHand  -0.119959 8.28358 -1.39384
LeftUpLeg  -88.2039 25.0887 -35.3005
LeftLeg  48.6275 -2.84443 -3.02074
LeftFoot  -8.90607 -0.0709054 5.86192
LeftToes  1.42787e-010 7.94111e-011 2.6399e-011
43
root  52.5851 34.5308 -0.707548 13.8542 -87.2304 25.2993
RightUpLeg  -82.9666 -18.8206 28.3687
RightLeg  50.5759 -3.11933 -4.44013
RightFoot  -12.2266 -0.183005 -12.9794
RightToes  2.32829e-010 0 -3.6325e-017
Spine  75.8823 -5.83244 9.53104
Spine1  -1.08919 1.61614 -3.53735
HEad  -53.9643 -5.98353 -0.431039
LeftShoulder1  10.6304 -27.6922 -27.737
LeftArm  -80.8535 -60.063 24.7672
LeftForeArm  0.881237 -23.9397 -5.08413
LeftHand  -0.244104 0.0205437 5.32207
RightShoulder  4.02836 14.605 15.4713
RightArm  -69.1333 52.2586 -16.3966
RightForeArm  -18.1048 30.5221 7.59035
RightHand  0.0884688 7.54226 0.427148
LeftUpLeg  -88.124 25.4095 -35.6173
LeftLeg  48.0827 -3.16541 -3.34108
LeftFoot  -8.77255 -0.076478 5.75486
LeftToes  1.42787e-010 7.94111e-011 2.6399e-011
44
root  52.4982 34.691 -0.612544 19.3337 -87.2988 19.7566
RightUpLeg  -82.2601 -19.0242 28.4933
RightLeg  49.6459 -3.0268 -4.18098
RightFoot  -11.838 -0.13555 -12.8558
RightToes  2.32829e-010 0 -3.6325e-017
Spine  75.6014 -5.81374 9.55
Spine1  -0.877448 1.53504 -3.42512
HEad  -54.0609 -5.8104 -0.638265
LeftShoulder1  10.6309 -27.4101 -28.0654
LeftArm  -80.1946 -59.6708 23.6067
LeftForeArm  0.905405 -25.7555 -5.47683
LeftHand  -0.244104 0.0205437 5.32207
RightShoulder  4.06805 14.3778 16.0227
RightArm  -68.8048 52.2693 -16.0035
RightForeArm  -17.5495 32.1908 8.01105
RightHand  0.267264 6.75963 2.19615
LeftUpLeg  -87.7547 25.7503 -35.9383
LeftLeg  47.2177 -3.44553 -3.55857
LeftFoot  -8.12413 -0.142684 6.78852
LeftToes  1.42787e-010 7.94111e-011 2.6399e-011
45
root  52.4358 34.8902 -0.510108 20.9285 -87.3235 17.8995
RightUpLeg  -81.2666 -19.2726 28.2055
RightLeg  48.5065 -3.03683 -4.03037
RightFoot  -11.3302 -0.074901 -12.7795
RightToes  2.32829e-010 0 -3.6325e-017
Spine  75.2074 -5.8636 9.5548
Spine1  -0.790643 1.39085 -3.39802
HEad  -53.8728 -5.63545 -0.745751
LeftShoulder1  10.6901 -27.224 -28.4808
LeftArm  -78.8777 -59.3028 22.3259
LeftForeArm  1.09573 -27.0605 -5.76704
LeftHand  -0.244104 0.0205437 5.32207
RightShoulder  4.11817 14.4106 16.2818
RightArm  -67.5455 51.858 -15.2225
RightForeArm  -17.5937 33.1845 8.28876
RightHand  0.364583 5.90146 3.40607
LeftUpLeg  -87.0046 26.1248 -36.3658
LeftLeg  46.0622 -3.64969 -3.6347
LeftFoot  -7.24572 -0.244823 8.06207
LeftToes  1.42787e-010 7.94111e-011 2.6399e-011
46
root  52.3875 35.1493 -0.406435 19.9049 -87.3287 18.4788
RightUpLeg  -79.9344 -19.7213 27.7846
RightLeg  46.9941 -3.00833 -3.79416
RightFoot  -10.7564 -0.00794268 -12.5652
RightToes  2.32829e-010 0 -3.6325e-017
Spine  74.7573 -5.99592 9.60191
Spine1  -0.650579 1.27174 -3.53076
HEad  -53.7496 -5.60113 -0.686093
LeftShoulder1  10.7673 -27.1539 -28.8213
LeftArm  -76.9828 -59.0875 21.2564
LeftForeArm  1.04798 -27.6123 -5.89947
LeftHand  -0.244104 0.0205437 5.32207
RightShoulder  4.23455 14.7571 16.4983
RightArm  -65.4601 51.0199 -14.3949
RightForeArm  -18.3367 33.5514 8.42825
RightHand  0.377713 5.06885 3.87572
LeftUpLeg  -85.9135 26.7138 -36.922
LeftLeg  44.6195 -3.99682 -3.80897
LeftFoot  -6.44272 -0.330951 8.63861
LeftToes  1.42787e-010 7.94111e-011 2.6399e-011
47
root  52.346 35.4655 -0.301223 19.7702 -87.3702 18.0596
RightUpLeg  -78.3058 -20.372 27.549
RightLeg  45.0454 -2.80319 -3.33219
RightFoot  -10.0921 0.064925 -12.1342
RightToes  2.32829e-010 0 -3.6325e-017
Spine  74.2506 -6.14499 9.74422
Spine1  -0.490797 1.26081 -3.73164
HEad  -53.9686 -5.72364 -0.657425
LeftShoulder1  10.8021 -27.1685 -28.9195
LeftArm  -74.5422 -58.9046 19.811
LeftForeArm  0.668376 -27.5645 -5.90841
LeftHand  -0.244104 0.0205437 5.32207
RightShoulder  4.32583 15.0129 16.6841
RightArm  -62.6774 50.2203 -12.974
RightForeArm  -19.6279 33.8303 8.56904
RightHand  0.34947 4.42466 3.84328
LeftUpLeg  -84.6209 27.539 -37.5547
LeftLeg  42.8137 -4.5918 -4.1498
LeftFoot  -5.64555 -0.402009 8.74806
LeftToes  1.42787e-010 7.94111e-011 2.6399e-011
